<mxfile host="app.diagrams.net" modified="2023-10-16T16:56:06.960Z" agent="Mozilla/5.0 (Windows NT 10.0; Win64; x64) AppleWebKit/537.36 (KHTML, like Gecko) Chrome/118.0.0.0 Safari/537.36" etag="bEv5mAW72CEokxFsEeNk" version="22.0.4" type="device">
  <diagram name="PÃ¡gina-1" id="QTjBklRx3TVHTYZwXEr7">
    <mxGraphModel dx="1249" dy="651" grid="1" gridSize="10" guides="1" tooltips="1" connect="1" arrows="1" fold="1" page="1" pageScale="1" pageWidth="827" pageHeight="1169" background="#1A1A1A" math="0" shadow="0">
      <root>
        <mxCell id="0" />
        <mxCell id="1" parent="0" />
        <mxCell id="9JBbTwRGRQHnodbVDRrB-12" style="edgeStyle=orthogonalEdgeStyle;rounded=0;orthogonalLoop=1;jettySize=auto;html=1;exitX=0.5;exitY=0.5;exitDx=0;exitDy=0;exitPerimeter=0;labelBackgroundColor=none;strokeColor=#DDA15E;fontColor=default;" edge="1" parent="1" source="9JBbTwRGRQHnodbVDRrB-1" target="9JBbTwRGRQHnodbVDRrB-4">
          <mxGeometry relative="1" as="geometry" />
        </mxCell>
        <mxCell id="9JBbTwRGRQHnodbVDRrB-13" style="edgeStyle=orthogonalEdgeStyle;rounded=0;orthogonalLoop=1;jettySize=auto;html=1;labelBackgroundColor=none;strokeColor=#DDA15E;fontColor=default;" edge="1" parent="1" source="9JBbTwRGRQHnodbVDRrB-1" target="9JBbTwRGRQHnodbVDRrB-5">
          <mxGeometry relative="1" as="geometry" />
        </mxCell>
        <mxCell id="9JBbTwRGRQHnodbVDRrB-14" style="edgeStyle=orthogonalEdgeStyle;rounded=0;orthogonalLoop=1;jettySize=auto;html=1;entryX=0;entryY=0.5;entryDx=0;entryDy=0;labelBackgroundColor=none;strokeColor=#DDA15E;fontColor=default;" edge="1" parent="1" source="9JBbTwRGRQHnodbVDRrB-1" target="9JBbTwRGRQHnodbVDRrB-6">
          <mxGeometry relative="1" as="geometry">
            <mxPoint x="125" y="240" as="targetPoint" />
          </mxGeometry>
        </mxCell>
        <mxCell id="9JBbTwRGRQHnodbVDRrB-25" style="edgeStyle=orthogonalEdgeStyle;rounded=0;orthogonalLoop=1;jettySize=auto;html=1;entryX=0;entryY=0.5;entryDx=0;entryDy=0;labelBackgroundColor=none;strokeColor=#DDA15E;fontColor=default;" edge="1" parent="1" source="9JBbTwRGRQHnodbVDRrB-1" target="9JBbTwRGRQHnodbVDRrB-23">
          <mxGeometry relative="1" as="geometry" />
        </mxCell>
        <mxCell id="9JBbTwRGRQHnodbVDRrB-1" value="ALUMNO" style="shape=umlActor;verticalLabelPosition=bottom;verticalAlign=top;html=1;outlineConnect=0;labelBackgroundColor=none;fillColor=#BC6C25;strokeColor=#DDA15E;fontColor=#FEFAE0;" vertex="1" parent="1">
          <mxGeometry x="90" y="80" width="30" height="60" as="geometry" />
        </mxCell>
        <mxCell id="9JBbTwRGRQHnodbVDRrB-10" style="edgeStyle=orthogonalEdgeStyle;rounded=0;orthogonalLoop=1;jettySize=auto;html=1;labelBackgroundColor=none;strokeColor=#DDA15E;fontColor=default;" edge="1" parent="1" source="9JBbTwRGRQHnodbVDRrB-2" target="9JBbTwRGRQHnodbVDRrB-9">
          <mxGeometry relative="1" as="geometry" />
        </mxCell>
        <mxCell id="9JBbTwRGRQHnodbVDRrB-2" value="Empleado administrativo&lt;br&gt;" style="shape=umlActor;verticalLabelPosition=bottom;verticalAlign=top;html=1;outlineConnect=0;labelBackgroundColor=none;fillColor=#BC6C25;strokeColor=#DDA15E;fontColor=#FEFAE0;" vertex="1" parent="1">
          <mxGeometry x="90" y="430" width="30" height="60" as="geometry" />
        </mxCell>
        <mxCell id="9JBbTwRGRQHnodbVDRrB-3" value="Servidor Banco" style="shape=umlActor;verticalLabelPosition=bottom;verticalAlign=top;html=1;outlineConnect=0;labelBackgroundColor=none;fillColor=#BC6C25;strokeColor=#DDA15E;fontColor=#FEFAE0;" vertex="1" parent="1">
          <mxGeometry x="520" y="150" width="30" height="60" as="geometry" />
        </mxCell>
        <mxCell id="9JBbTwRGRQHnodbVDRrB-4" value="Iniciar sesion" style="ellipse;whiteSpace=wrap;html=1;labelBackgroundColor=none;fillColor=#BC6C25;strokeColor=#DDA15E;fontColor=#FEFAE0;" vertex="1" parent="1">
          <mxGeometry x="190" width="120" height="80" as="geometry" />
        </mxCell>
        <mxCell id="9JBbTwRGRQHnodbVDRrB-5" value="Cerrar Sesion" style="ellipse;whiteSpace=wrap;html=1;labelBackgroundColor=none;fillColor=#BC6C25;strokeColor=#DDA15E;fontColor=#FEFAE0;" vertex="1" parent="1">
          <mxGeometry x="190" y="100" width="120" height="80" as="geometry" />
        </mxCell>
        <mxCell id="9JBbTwRGRQHnodbVDRrB-6" value="" style="ellipse;whiteSpace=wrap;html=1;labelBackgroundColor=none;fillColor=#BC6C25;strokeColor=#DDA15E;fontColor=#FEFAE0;" vertex="1" parent="1">
          <mxGeometry x="190" y="200" width="120" height="80" as="geometry" />
        </mxCell>
        <mxCell id="9JBbTwRGRQHnodbVDRrB-15" style="edgeStyle=orthogonalEdgeStyle;rounded=0;orthogonalLoop=1;jettySize=auto;html=1;labelBackgroundColor=none;strokeColor=#DDA15E;fontColor=default;" edge="1" parent="1" source="9JBbTwRGRQHnodbVDRrB-8" target="9JBbTwRGRQHnodbVDRrB-6">
          <mxGeometry relative="1" as="geometry">
            <Array as="points">
              <mxPoint x="420" y="240" />
            </Array>
          </mxGeometry>
        </mxCell>
        <mxCell id="9JBbTwRGRQHnodbVDRrB-29" value="&amp;lt;EXTENDS&amp;gt;" style="edgeLabel;html=1;align=center;verticalAlign=middle;resizable=0;points=[];labelBackgroundColor=none;fontColor=#FEFAE0;" vertex="1" connectable="0" parent="9JBbTwRGRQHnodbVDRrB-15">
          <mxGeometry x="0.0938" relative="1" as="geometry">
            <mxPoint as="offset" />
          </mxGeometry>
        </mxCell>
        <mxCell id="9JBbTwRGRQHnodbVDRrB-8" value="PAGAR" style="ellipse;whiteSpace=wrap;html=1;labelBackgroundColor=none;fillColor=#BC6C25;strokeColor=#DDA15E;fontColor=#FEFAE0;" vertex="1" parent="1">
          <mxGeometry x="360" y="140" width="120" height="80" as="geometry" />
        </mxCell>
        <mxCell id="9JBbTwRGRQHnodbVDRrB-9" value="CARGAR CARRERAS" style="ellipse;whiteSpace=wrap;html=1;labelBackgroundColor=none;fillColor=#BC6C25;strokeColor=#DDA15E;fontColor=#FEFAE0;" vertex="1" parent="1">
          <mxGeometry x="190" y="420" width="120" height="80" as="geometry" />
        </mxCell>
        <mxCell id="9JBbTwRGRQHnodbVDRrB-21" value="Elegir carrera" style="text;html=1;strokeColor=none;fillColor=none;align=center;verticalAlign=middle;whiteSpace=wrap;rounded=0;labelBackgroundColor=none;fontColor=#FEFAE0;" vertex="1" parent="1">
          <mxGeometry x="220" y="225" width="60" height="30" as="geometry" />
        </mxCell>
        <mxCell id="9JBbTwRGRQHnodbVDRrB-23" value="" style="ellipse;whiteSpace=wrap;html=1;labelBackgroundColor=none;fillColor=#BC6C25;strokeColor=#DDA15E;fontColor=#FEFAE0;" vertex="1" parent="1">
          <mxGeometry x="190" y="300" width="120" height="80" as="geometry" />
        </mxCell>
        <mxCell id="9JBbTwRGRQHnodbVDRrB-24" value="Registrarse" style="text;html=1;strokeColor=none;fillColor=none;align=center;verticalAlign=middle;whiteSpace=wrap;rounded=0;labelBackgroundColor=none;fontColor=#FEFAE0;" vertex="1" parent="1">
          <mxGeometry x="220" y="325" width="60" height="30" as="geometry" />
        </mxCell>
        <mxCell id="9JBbTwRGRQHnodbVDRrB-27" value="" style="endArrow=classic;html=1;rounded=0;labelBackgroundColor=none;strokeColor=#DDA15E;fontColor=default;" edge="1" parent="1" source="9JBbTwRGRQHnodbVDRrB-6" target="9JBbTwRGRQHnodbVDRrB-8">
          <mxGeometry width="50" height="50" relative="1" as="geometry">
            <mxPoint x="230" y="210" as="sourcePoint" />
            <mxPoint x="280" y="160" as="targetPoint" />
          </mxGeometry>
        </mxCell>
        <mxCell id="9JBbTwRGRQHnodbVDRrB-30" value="" style="endArrow=none;html=1;rounded=0;entryX=0.5;entryY=0.5;entryDx=0;entryDy=0;entryPerimeter=0;exitX=1;exitY=0.5;exitDx=0;exitDy=0;labelBackgroundColor=none;strokeColor=#DDA15E;fontColor=default;" edge="1" parent="1" source="9JBbTwRGRQHnodbVDRrB-8" target="9JBbTwRGRQHnodbVDRrB-3">
          <mxGeometry width="50" height="50" relative="1" as="geometry">
            <mxPoint x="230" y="210" as="sourcePoint" />
            <mxPoint x="280" y="160" as="targetPoint" />
          </mxGeometry>
        </mxCell>
      </root>
    </mxGraphModel>
  </diagram>
</mxfile>
